<svg xmlns="http://www.w3.org/2000/svg" xmlns:xlink="http://www.w3.org/1999/xlink" width="448" height="448" viewBox="0 0 448 448"><defs><linearGradient id="a" x1="50%" x2="50%" y1="0%" y2="100%"><stop offset="0%" stop-color="#4D4D4D"/><stop offset="100%" stop-color="#444"/></linearGradient><filter id="b" width="131.2%" height="146.9%" x="-15.6%" y="-11.7%" filterUnits="objectBoundingBox"><feOffset dy="20" in="SourceAlpha" result="shadowOffsetOuter1"/><feGaussianBlur in="shadowOffsetOuter1" result="shadowBlurOuter1" stdDeviation="10"/><feColorMatrix in="shadowBlurOuter1" values="0 0 0 0 0 0 0 0 0 0 0 0 0 0 0 0 0 0 0.1 0"/></filter><path id="c" d="M101.966 215.658l244.595-77.362c3.295-1.042 5.966.756 5.966 4.016v80.674c0 3.26-2.671 6.748-5.966 7.79l-244.595 77.362c-3.295 1.042-5.966-.756-5.966-4.016v-80.674c0-3.26 2.671-6.748 5.966-7.79z"/></defs><g fill="none"><rect width="448" height="448" fill="url(#a)" rx="28"/><path fill="#FF9800" d="M101.966 134.658l244.595-77.362c3.295-1.042 5.966.756 5.966 4.016v80.674c0 3.26-2.671 6.748-5.966 7.79l-244.595 77.362c-3.295 1.042-5.966-.756-5.966-4.016v-80.674c0-3.26 2.671-6.748 5.966-7.79zm0 163l244.595-77.362c3.295-1.042 5.966.756 5.966 4.016v80.674c0 3.26-2.671 6.748-5.966 7.79l-244.595 77.362c-3.295 1.042-5.966-.756-5.966-4.016v-80.674c0-3.26 2.671-6.748 5.966-7.79z"/><g transform="matrix(-1 0 0 1 448.526 0)"><use fill="#000" filter="url(#b)" xlink:href="#c"/><use fill="#FF9800" xlink:href="#c"/></g></g></svg>